<svg xmlns="http://www.w3.org/2000/svg" width="471" height="179"><defs><style type="text/css">@font-face {
    font-family: 'pictex-Oswald';
    src: url('Oswald-VariableFont_wght.ttf');
}</style></defs>
	<rect fill-opacity="0" width="471" height="179" />
	<defs>
		<linearGradient id="gradient_0" gradientUnits="userSpaceOnUse" x1="0" y1="0" x2="471" y2="179">
			<stop offset="0" stop-color="#1D2B64" />
			<stop offset="1" stop-color="#F8CDDA" />
		</linearGradient>
	</defs>
	<path fill="url(#gradient_0)" d="M0 159L0 20Q0 19.509027 0.024090873 19.018646Q0.048181746 18.528265 0.09630546 18.039658Q0.14442916 17.551048 0.21646976 17.06539Q0.28851038 16.579731 0.38429433 16.098192Q0.48007828 15.616653 0.59937483 15.140394Q0.71867144 14.664137 0.86119318 14.194306Q1.0037149 13.724474 1.1691185 13.262202Q1.334522 12.79993 1.5224091 12.346331Q1.7102962 11.892731 1.9202138 11.448898Q2.1301317 11.005064 2.3615744 10.572065Q2.5930171 10.139067 2.8454275 9.7179451Q3.0978374 9.2968235 3.3706071 8.8885946Q3.6433768 8.4803658 3.9358487 8.0860128Q4.2283211 7.6916609 4.5397906 7.3121338Q4.8512602 6.9326067 5.1809769 6.56882Q5.510694 6.2050338 5.8578639 5.8578639Q6.2050338 5.510694 6.56882 5.1809769Q6.9326072 4.8512602 7.3121343 4.5397906Q7.6916609 4.2283211 8.0860138 3.9358487Q8.4803658 3.6433768 8.8885946 3.3706071Q9.2968235 3.0978374 9.7179451 2.845427Q10.139067 2.5930171 10.572065 2.3615744Q11.005064 2.1301317 11.448896 1.9202138Q11.892731 1.7102962 12.34633 1.5224091Q12.799929 1.334522 13.262201 1.1691184Q13.724474 1.0037149 14.194306 0.86119318Q14.664138 0.71867144 15.140396 0.59937489Q15.616655 0.48007828 16.098194 0.38429433Q16.579731 0.28851038 17.06539 0.21646976Q17.551048 0.14442916 18.039658 0.09630546Q18.528265 0.048181746 19.018646 0.024090873Q19.509027 0 20 0L451 0Q451.49097 0 451.98132 0.024090873Q452.47171 0.048181746 452.96033 0.09630546Q453.44891 0.14442916 453.93457 0.21646976Q454.42023 0.28851038 454.90176 0.38429433Q455.3833 0.48007828 455.85959 0.59937483Q456.33585 0.71867144 456.80569 0.86119318Q457.27551 1.0037149 457.73776 1.1691185Q458.20001 1.334522 458.65363 1.5224091Q459.10724 1.7102962 459.55109 1.9202138Q459.99493 2.1301317 460.42792 2.3615744Q460.8609 2.5930171 461.28204 2.8454275Q461.70312 3.0978374 462.11136 3.3706071Q462.51959 3.6433768 462.91394 3.9358487Q463.30832 4.2283211 463.68787 4.5397906Q464.06738 4.8512602 464.43115 5.1809769Q464.79492 5.510694 465.14209 5.8578639Q465.48926 6.2050338 465.81897 6.56882Q466.14868 6.9326072 466.46017 7.3121343Q466.77164 7.6916609 467.06409 8.0860138Q467.35657 8.4803658 467.62933 8.8885946Q467.9021 9.2968235 468.15451 9.7179451Q468.40692 10.139067 468.6384 10.572065Q468.86981 11.005064 469.07971 11.448896Q469.28964 11.892731 469.47754 12.34633Q469.66541 12.799929 469.83084 13.262201Q469.99625 13.724474 470.13879 14.194306Q470.28131 14.664138 470.4006 15.140396Q470.5199 15.616655 470.61569 16.098194Q470.71149 16.579731 470.78351 17.06539Q470.85556 17.551048 470.90369 18.039658Q470.95181 18.528265 470.97589 19.018646Q471 19.509027 471 20L471 159Q471 159.49097 470.97589 159.98134Q470.95181 160.47173 470.90369 160.96033Q470.85556 161.44894 470.78351 161.93459Q470.71149 162.42026 470.61569 162.90179Q470.5199 163.38333 470.4006 163.85959Q470.28131 164.33585 470.13879 164.80569Q469.99625 165.27551 469.83081 165.73779Q469.66541 166.20006 469.47754 166.65366Q469.28964 167.10727 469.07974 167.5511Q468.86981 167.99493 468.6384 168.42795Q468.40692 168.86095 468.15451 169.28206Q467.9021 169.70319 467.62933 170.1114Q467.35657 170.51962 467.06412 170.91399Q466.77167 171.30833 466.46021 171.68787Q466.14871 172.06738 465.81897 172.43118Q465.48926 172.79497 465.14209 173.14214Q464.79492 173.4893 464.43115 173.81903Q464.06735 174.14874 463.68784 174.46022Q463.30829 174.77168 462.91394 175.06415Q462.51959 175.35661 462.11136 175.62938Q461.70312 175.90216 461.28201 176.15457Q460.8609 176.40698 460.42795 176.63843Q459.99493 176.86987 459.55109 177.07979Q459.10724 177.2897 458.65363 177.47758Q458.20001 177.66547 457.73776 177.83089Q457.27548 177.99629 456.80566 178.13882Q456.33585 178.28134 455.85959 178.40063Q455.38336 178.51993 454.90179 178.61571Q454.42026 178.71149 453.9346 178.78354Q453.44894 178.85558 452.96036 178.9037Q452.47174 178.95181 451.98132 178.97591Q451.49097 179 451 179L20 179Q19.509027 179 19.018646 178.97591Q18.528265 178.95181 18.039658 178.90372Q17.551048 178.85559 17.06539 178.78354Q16.579731 178.71149 16.098192 178.61571Q15.616653 178.51993 15.140394 178.40063Q14.664137 178.28134 14.194306 178.13882Q13.724474 177.99629 13.262202 177.83089Q12.79993 177.66547 12.346331 177.47758Q11.892731 177.2897 11.448898 177.07977Q11.005064 176.86987 10.572065 176.63843Q10.139067 176.40698 9.7179451 176.15457Q9.2968235 175.90216 8.8885946 175.62938Q8.4803658 175.35661 8.0860128 175.06415Q7.6916609 174.77167 7.3121338 174.46021Q6.9326067 174.14874 6.56882 173.81902Q6.2050338 173.4893 5.8578639 173.14214Q5.510694 172.79497 5.1809769 172.43118Q4.8512602 172.06738 4.5397906 171.68787Q4.2283211 171.30832 3.9358487 170.91397Q3.6433768 170.51962 3.3706071 170.11139Q3.0978374 169.70317 2.845427 169.28206Q2.5930171 168.86095 2.3615744 168.42795Q2.1301317 167.99495 1.9202138 167.55112Q1.7102962 167.10727 1.5224091 166.65367Q1.334522 166.20007 1.1691184 165.73781Q1.0037149 165.27553 0.86119318 164.80569Q0.71867144 164.33585 0.59937489 163.85959Q0.48007828 163.38333 0.38429433 162.90179Q0.28851038 162.42026 0.21646976 161.9346Q0.14442916 161.44894 0.09630546 160.96034Q0.048181746 160.47174 0.024090873 159.98135Q0 159.49097 0 159Z" />
	<text fill="white" font-size="80" font-family="pictex-Oswald" x="60, 102.8, 127.76, 160.48001, 195.84, 214.16, 247.84, 282.96002, 307.60001, 325.92001, 367.84, " y="125.43999, ">
			Gradient BG
	</text>
</svg>