<svg xmlns="http://www.w3.org/2000/svg" width="357" height="171"><defs><style type="text/css">@font-face {
    font-family: 'pictex-InterVariable';
    src: url('InterVariable.ttf');
}@font-face {
    font-family: 'pictex-InterVariable';
    src: url('InterVariable.ttf');
}@font-face {
    font-family: 'pictex-InterVariable';
    src: url('InterVariable.ttf');
}</style></defs>
	<rect fill-opacity="0" width="357" height="171" />
	<text font-size="30" font-family="pictex-InterVariable" x="20.388672, 38.420898, 56.145508, 74.543945, 81.80957, 89.075195, 104.91016, 122.64941, 131.08691, 142.0293, 156.10645, 175.47168, 194.77832, 203.21582, 226.15527, 242.42969, 259.91992, 271.68262, 283.26953, 290.53516, 308.9043, 326.05762, " y="49.0625, ">
			English LTR Override)
	</text>
	<text font-size="30" font-family="pictex-InterVariable" x="20.439453, " y="96.0625, ">
			(
	</text>
	<text font-size="30" font-family="pictex-InterVariable" x="31.381836, 50.688477, 70.053711, 87.016602, 95.454102, 118.39355, 134.66797, 152.1582, 163.9209, 175.50781, 182.77344, 201.14258, " y="96.0625, ">
			RTL Override
	</text>
	<text font-size="30" font-family="pictex-InterVariable" x="218.63281, 229.5752, " y="96.0625, ">
			) 
	</text>
	<text font-size="30" font-family="DejaVu Sans" x="238.0127, 254.09668, 263.14941, 271.49902, 288.05176, 302.52441, 311.66504, " y="96.0625, ">
			ﺔﻴﺑﺮﻌﻟا
	</text>
	<text font-size="30" font-family="pictex-InterVariable" x="20.755859, 28.8125, 46.537109, 64.276367, 81.766602, 93.353516, 100.61914, 110.14062, 127.63086, " y="143.0625, ">
			Inherited
	</text>
</svg>